<?xml version="1.0"?>
<svg xmlns="http://www.w3.org/2000/svg" xmlns:xlink="http://www.w3.org/1999/xlink" xmlns:svgjs="http://svgjs.com/svgjs" version="1.1" width="512" height="512" x="0" y="0" viewBox="0 0 512 512" style="enable-background:new 0 0 512 512" xml:space="preserve" class=""><g><g xmlns="http://www.w3.org/2000/svg" id="Out_line" data-name="Out line"><path d="m288 456a24.0275 24.0275 0 0 1 -24 24h-208a24.0275 24.0275 0 0 1 -24-24v-400a24.0275 24.0275 0 0 1 24-24h208a24.0275 24.0275 0 0 1 24 24v72h16v-72a40.04552 40.04552 0 0 0 -40-40h-208a40.04552 40.04552 0 0 0 -40 40v400a40.04552 40.04552 0 0 0 40 40h208a40.04552 40.04552 0 0 0 40-40v-120h-16z" fill="#ff9c01" data-original="#000000" style="" class=""/><path d="m280 144v-88a16.01833 16.01833 0 0 0 -16-16h-88a8.00008 8.00008 0 0 0 -8 8v8a8 8 0 0 1 -16 0v-8a8.00008 8.00008 0 0 0 -8-8h-88a16.01833 16.01833 0 0 0 -16 16v400a16.01833 16.01833 0 0 0 16 16h208a16.01833 16.01833 0 0 0 16-16v-112h-16v112h-208v-400h80a24 24 0 0 0 48 0h80v88z" fill="#ff9c01" data-original="#000000" style="" class=""/><path d="m368 200h-72v-8a24 24 0 0 0 -48 0v10.49194a84.19386 84.19386 0 0 0 -64 81.75806v27.75a8.00008 8.00008 0 0 0 8 8h33.37622a23.995 23.995 0 0 0 45.2478 0h50.752a23.9952 23.9952 0 0 0 45.248 0h25.37598a8.00008 8.00008 0 0 0 8-8v-80a32.03635 32.03635 0 0 0 -32-32zm-104-8a8 8 0 0 1 16 0v8h-11.75c-1.42236 0-2.83838.04791-4.25.11957zm-16 128a8 8 0 1 1 8-8 8.00917 8.00917 0 0 1 -8 8zm96 0a8 8 0 1 1 8-8 8.00917 8.00917 0 0 1 -8 8zm40-16h-17.376a23.9952 23.9952 0 0 0 -45.248 0h-50.752a23.995 23.995 0 0 0 -45.2478 0h-25.3762v-19.75a68.26 68.26 0 0 1 68.25-68.25h3.75v72h16v-72h80a16.01833 16.01833 0 0 1 16 16z" fill="#ff9c01" data-original="#000000" style="" class=""/><path d="m248 256h-32v16h40a8.00008 8.00008 0 0 0 8-8v-32h-16z" fill="#ff9c01" data-original="#000000" style="" class=""/><path d="m344 224h-16v16h-16v16h16v16h16v-16h16v-16h-16z" fill="#ff9c01" data-original="#000000" style="" class=""/><path d="m224 170.234h16v16.866h-16z" transform="matrix(.316 -.949 .949 .316 -10.865 342.26)" fill="#ff9c01" data-original="#000000" style="" class=""/><path d="m240 148.901h15.999v16.865h-15.999z" transform="matrix(.822 -.569 .569 .822 -45.46 169.133)" fill="#ff9c01" data-original="#000000" style="" class=""/><path d="m303.567 170.667h16.866v16h-16.866z" transform="matrix(.949 -.316 .316 .949 -40.489 107.835)" fill="#ff9c01" data-original="#000000" style="" class=""/><path d="m287.567 149.334h16.865v15.999h-16.865z" transform="matrix(.569 -.822 .822 .569 -1.849 311.137)" fill="#ff9c01" data-original="#000000" style="" class=""/><path d="m480 152a24.0275 24.0275 0 0 1 -24 24h-8a40 40 0 0 0 0 80h8a24 24 0 0 1 0 48h-40v16h40a40 40 0 0 0 0-80h-8a24 24 0 0 1 0-48h8a40.04552 40.04552 0 0 0 40-40v-32h-16z" fill="#ff9c01" data-original="#000000" style="" class=""/><path d="m480 88h16v16h-16z" fill="#ff9c01" data-original="#000000" style="" class=""/><path d="m120 184a56.06322 56.06322 0 0 0 -56 56c0 21.45386 25.37866 59.70215 40.03369 80h-16.03369v16h64v-16h-16.03369c14.65503-20.29785 40.03369-58.54614 40.03369-80a56.06322 56.06322 0 0 0 -56-56zm0 16a40.04552 40.04552 0 0 1 40 40c0 15.36865-22.43945 50.92432-40 74.751-17.56055-23.82668-40-59.38235-40-74.751a40.04552 40.04552 0 0 1 40-40z" fill="#ff9c01" data-original="#000000" style="" class=""/><path d="m152 240a32 32 0 1 0 -32 32 32.03635 32.03635 0 0 0 32-32zm-48 0a16 16 0 1 1 16 16 16.01833 16.01833 0 0 1 -16-16z" fill="#ff9c01" data-original="#000000" style="" class=""/></g></g></svg>
