<svg xmlns="http://www.w3.org/2000/svg" width="45.44" height="43.987" viewBox="0 0 45.44 43.987">
  <g id="pickupambulance" transform="translate(0.2 0.2)">
    <path id="Path_1252" data-name="Path 1252" d="M106.179,400a2.179,2.179,0,1,0,2.179,2.179A2.182,2.182,0,0,0,106.179,400Zm0,2.906a.726.726,0,1,1,.726-.726A.727.727,0,0,1,106.179,402.906Zm0,0" transform="translate(-94.556 -363.677)" fill="#009f88" stroke="#009f88" stroke-width="0.4"/>
    <path id="Path_1253" data-name="Path 1253" d="M346.179,400a2.179,2.179,0,1,0,2.179,2.179A2.182,2.182,0,0,0,346.179,400Zm0,2.906a.726.726,0,1,1,.726-.726A.727.727,0,0,1,346.179,402.906Zm0,0" transform="translate(-312.763 -363.677)" fill="#009f88" stroke="#009f88" stroke-width="0.4"/>
    <path id="Path_1254" data-name="Path 1254" d="M43.587,35.6V18.161a3.637,3.637,0,0,0-3.632-3.632h-.726V8.717H35.9l1.339-1.339a4.322,4.322,0,0,0-6-6.223,4.322,4.322,0,0,0-6,6.223l1.339,1.339H23.246v5.812H19.614V11.623H13.8v2.906H13.36a3.629,3.629,0,0,0-3.2,1.91L6.236,23.728a.731.731,0,0,1-.519.372L4.489,24.3a3.62,3.62,0,0,0-3.036,3.583V35.6A1.454,1.454,0,0,0,0,37.049v2.906a1.454,1.454,0,0,0,1.453,1.453h6a5.073,5.073,0,0,0,8.334,0H29.25a5.073,5.073,0,0,0,8.334,0h6a1.454,1.454,0,0,0,1.453-1.453V37.049A1.454,1.454,0,0,0,43.587,35.6ZM25.426,4.322a2.869,2.869,0,0,1,4.9-2.029l.913.914.913-.914a2.869,2.869,0,1,1,4.058,4.057l-4.971,4.972L26.267,6.351a2.848,2.848,0,0,1-.841-2.028ZM24.7,10.17h3.331l3.207,3.207,3.207-3.207h3.331v4.359H24.7Zm-9.444,2.906h2.906v1.453H15.255ZM2.906,29.785H4.359v2.179H5.812V28.332H2.906v-.444a2.172,2.172,0,0,1,1.821-2.15l1.228-.205a2.191,2.191,0,0,0,1.561-1.117l3.923-7.288a2.18,2.18,0,0,1,1.921-1.146h26.6a2.182,2.182,0,0,1,2.179,2.179V35.6H40.681V18.888a1.454,1.454,0,0,0-1.453-1.453H26.152A1.454,1.454,0,0,0,24.7,18.888V35.6H23.246V18.888a1.454,1.454,0,0,0-1.453-1.453H14.252a1.444,1.444,0,0,0-1.3.8l-1.778,3.556h-1V33.631A5.1,5.1,0,0,0,7.456,35.6H5.812V33.417H4.359V35.6H2.906Zm30.511,3.632V24.7h5.812V35.6H37.584A5.079,5.079,0,0,0,33.417,33.417ZM29.25,35.6h-3.1V24.7h5.812v8.932A5.1,5.1,0,0,0,29.25,35.6Zm9.978-12.35H33.417V18.888h5.812Zm-7.265,0H26.152V18.888h5.812ZM11.623,33.417V26.152H13.8A2.176,2.176,0,0,0,15.848,24.7h5.945V35.6h-6A5.079,5.079,0,0,0,11.623,33.417Zm10.17-10.17H15.848A2.176,2.176,0,0,0,13.8,21.794h-1l1.453-2.906h7.542Zm-7.265.726a.727.727,0,0,1-.726.726H11.623V23.246H13.8A.727.727,0,0,1,14.529,23.973ZM1.453,39.955V37.049h5.3a5.034,5.034,0,0,0,0,2.906Zm10.17,2.179A3.632,3.632,0,1,1,15.256,38.5,3.637,3.637,0,0,1,11.623,42.134Zm4.871-2.179a5.034,5.034,0,0,0,0-2.906H28.546a5.034,5.034,0,0,0,0,2.906Zm16.923,2.179A3.632,3.632,0,1,1,37.049,38.5,3.637,3.637,0,0,1,33.417,42.134Zm10.17-2.179h-5.3a5.034,5.034,0,0,0,0-2.906h5.3Zm0,0" transform="translate(0)" fill="#009f88" stroke="#009f88" stroke-width="0.4"/>
    <path id="Path_1255" data-name="Path 1255" d="M192,296h2.906v1.453H192Zm0,0" transform="translate(-174.565 -269.121)" fill="#009f88" stroke="#009f88" stroke-width="0.4"/>
    <path id="Path_1256" data-name="Path 1256" d="M322.906,52.359V50.906h1.453V49.453h-1.453V48h-1.453v1.453H320v1.453h1.453v1.453Zm0,0" transform="translate(-290.942 -43.641)" fill="#009f88" stroke="#009f88" stroke-width="0.4"/>
    <path id="Path_1257" data-name="Path 1257" d="M176,64h1.453v2.906H176Zm0,0" transform="translate(-160.018 -58.188)" fill="#009f88" stroke="#009f88" stroke-width="0.4"/>
    <path id="Path_1258" data-name="Path 1258" d="M127.426,80.465l1.027-1.028,2.055,2.055-1.027,1.028Zm0,0" transform="translate(-115.855 -72.224)" fill="#009f88" stroke="#009f88" stroke-width="0.4"/>
    <path id="Path_1259" data-name="Path 1259" d="M206.625,81.485l2.055-2.055,1.027,1.027-2.055,2.055Zm0,0" transform="translate(-187.862 -72.217)" fill="#009f88" stroke="#009f88" stroke-width="0.4"/>
  </g>
</svg>
