<svg xmlns="http://www.w3.org/2000/svg" width="32.355" height="46.221" viewBox="0 0 32.355 46.221">
  <g id="sharelocation" transform="translate(-11 -2)">
    <g id="Route-pin-locations" transform="translate(11 2)">
      <path id="Path_1249" data-name="Path 1249" d="M40.651,19.326A12.326,12.326,0,1,0,28.326,31.651,12.326,12.326,0,0,0,40.651,19.326Zm-23.11,0A10.785,10.785,0,1,1,28.326,30.11,10.785,10.785,0,0,1,17.541,19.326Z" transform="translate(-12.148 -3.148)" fill="#59ac67"/>
      <path id="Path_1250" data-name="Path 1250" d="M33.86,25.107a3.064,3.064,0,0,0-5.072-2.333l-2.835-1.987a2.955,2.955,0,0,0,.133-1.717l3.922-1.961a3.037,3.037,0,1,0-.7-1.373L25.386,17.7a3.081,3.081,0,1,0-.32,4.349L27.9,24.034a3.047,3.047,0,0,0-.2,1.073,3.081,3.081,0,1,0,6.163,0ZM32.319,13.552a1.541,1.541,0,1,1-1.541,1.541A1.541,1.541,0,0,1,32.319,13.552Zm-9.244,7.7a1.541,1.541,0,1,1,1.541-1.541A1.541,1.541,0,0,1,23.075,21.256Zm6.163,3.852a1.541,1.541,0,1,1,1.541,1.541A1.541,1.541,0,0,1,29.238,25.107Z" transform="translate(-13.061 -4.308)" fill="#59ac67"/>
      <path id="Path_1251" data-name="Path 1251" d="M31.074,40.853c4.587-5.793,12.281-16.435,12.281-22.675a16.177,16.177,0,1,0-32.355,0c0,6.24,7.693,16.882,12.281,22.675-2.782.506-5.348,1.629-5.348,3.517,0,2.529,4.651,3.852,9.244,3.852s9.244-1.323,9.244-3.852C36.422,42.482,33.855,41.359,31.074,40.853Zm-3.9-37.312A14.653,14.653,0,0,1,41.814,18.177c0,7.205-11.85,21.7-14.637,25-2.788-3.312-14.637-17.8-14.637-25A14.653,14.653,0,0,1,27.177,3.541Zm0,43.14c-4.631,0-7.7-1.391-7.7-2.311,0-.64,1.719-1.695,4.923-2.125,1.22,1.5,2.059,2.469,2.2,2.631a.77.77,0,0,0,1.162,0c.14-.162.979-1.129,2.2-2.631,3.2.43,4.923,1.484,4.923,2.125C34.881,45.289,31.809,46.68,27.177,46.68Z" transform="translate(-11 -2)" fill="#59ac67"/>
    </g>
  </g>
</svg>
